# Blender v2.78 (sub 0) OBJ File: ''
# www.blender.org
o Plane_Plane.008
v -0.058268 0.038573 0.001975
v 0.061417 0.038573 0.001975
v -0.066578 -0.041079 -1.791855
v 0.104401 -0.057270 -1.779642
v -0.357666 0.114242 -0.766548
v 0.196983 -0.037774 -0.766548
v 0.355649 -0.181823 -1.513527
v -0.443658 -0.094618 -1.566096
v 0.001575 0.105024 0.001975
v 0.018911 -0.022975 -1.785748
v -0.080342 0.165451 -0.766548
v -0.047127 0.036258 -1.539812
v -0.058268 0.038573 0.001975
v 0.061417 0.038573 0.001975
v -0.066578 -0.041079 -1.791855
v 0.104401 -0.057270 -1.779642
v -0.357666 0.114242 -0.766548
v 0.196983 -0.037774 -0.766548
v 0.355649 -0.181823 -1.513527
v -0.443658 -0.094618 -1.566096
v 0.001575 0.105024 0.001975
v 0.018911 -0.022975 -1.785748
v -0.080342 0.165451 -0.766548
v -0.047127 0.036258 -1.539812
vt 0.4764 0.8466
vt 0.6943 0.8335
vt 0.5522 0.9665
vt 0.5095 0.9696
vt 0.5008 0.0757
vt 0.5307 0.0757
vt 0.5985 0.4600
vt 0.4598 0.4600
vt 0.3212 0.4600
vt 0.2586 0.8597
vt 0.4709 0.0757
vt 0.4667 0.9726
vt 0.4764 0.8466
vt 0.5095 0.9696
vt 0.5522 0.9665
vt 0.6943 0.8335
vt 0.5008 0.0757
vt 0.4598 0.4600
vt 0.5985 0.4600
vt 0.5307 0.0757
vt 0.3212 0.4600
vt 0.2586 0.8597
vt 0.4709 0.0757
vt 0.4667 0.9726
vn 0.1033 0.9801 -0.1692
vn 0.5050 0.8598 -0.0747
vn 0.4613 0.8856 -0.0539
vn 0.1515 0.9758 -0.1578
vn 0.1950 0.9760 0.0974
vn 0.6245 0.7808 0.0137
vn 0.5702 0.8203 -0.0433
vn 0.1331 0.9908 -0.0261
vn -0.2852 0.9573 -0.0471
vn -0.2552 0.9421 -0.2173
vn -0.3251 0.9315 0.1631
vn -0.2686 0.9265 -0.2635
vn -0.1033 -0.9801 0.1692
vn -0.1515 -0.9758 0.1578
vn -0.4613 -0.8856 0.0539
vn -0.5050 -0.8598 0.0747
vn -0.1950 -0.9760 -0.0974
vn -0.1331 -0.9908 0.0261
vn -0.5702 -0.8203 0.0433
vn -0.6245 -0.7808 -0.0137
vn 0.2852 -0.9573 0.0471
vn 0.2552 -0.9421 0.2173
vn 0.3251 -0.9315 -0.1631
vn 0.2686 -0.9265 0.2635
s 1
f 12/1/1 7/2/2 4/3/3 10/4/4
f 9/5/5 2/6/6 6/7/7 11/8/8
f 11/8/8 6/7/7 7/2/2 12/1/1
f 5/9/9 11/8/8 12/1/1 8/10/10
f 1/11/11 9/5/5 11/8/8 5/9/9
f 8/10/10 12/1/1 10/4/4 3/12/12
f 24/13/13 22/14/14 16/15/15 19/16/16
f 21/17/17 23/18/18 18/19/19 14/20/20
f 23/18/18 24/13/13 19/16/16 18/19/19
f 17/21/21 20/22/22 24/13/13 23/18/18
f 13/23/23 17/21/21 23/18/18 21/17/17
f 20/22/22 15/24/24 22/14/14 24/13/13
