# Blender v2.78 (sub 0) OBJ File: ''
# www.blender.org
v -0.105529 0.011383 -1.900220
v -0.058365 -0.006608 0.000563
v 0.090401 0.004522 0.004693
v -0.329945 0.022898 -1.535680
v 0.551961 0.078718 -1.446854
v 0.079109 0.134515 -1.492962
v 0.024052 0.055997 0.002974
v -0.105529 0.011383 -1.900220
v -0.058365 -0.006608 0.000563
v 0.090401 0.004522 0.004693
v -0.329945 0.022898 -1.535680
v 0.551961 0.078718 -1.446854
v 0.079109 0.134515 -1.492962
v 0.024052 0.055997 0.002974
vt 0.3544 1.0000
vt 0.4477 0.7939
vt 0.6770 0.7705
vt 0.4130 0.0367
vt 0.4440 0.0358
vt 0.2352 0.8155
vt 0.3694 0.0379
vt 0.3544 1.0000
vt 0.6770 0.7705
vt 0.4477 0.7939
vt 0.4440 0.0358
vt 0.4130 0.0367
vt 0.2352 0.8155
vt 0.3694 0.0379
vn -0.1045 0.9641 -0.2441
vn -0.0370 0.9929 -0.1126
vn 0.1782 0.9832 -0.0392
vn -0.0794 0.9941 0.0731
vn 0.1873 0.9787 0.0835
vn -0.2954 0.9539 -0.0533
vn -0.3382 0.9393 0.0576
vn 0.1045 -0.9641 0.2441
vn -0.1782 -0.9832 0.0392
vn 0.0370 -0.9929 0.1126
vn -0.1873 -0.9787 -0.0835
vn 0.0794 -0.9941 -0.0731
vn 0.2954 -0.9539 0.0533
vn 0.3382 -0.9393 -0.0576
s 1
f 1/1/1 6/2/2 5/3/3
f 5/3/3 6/2/2 7/4/4 3/5/5
f 6/2/2 1/1/1 4/6/6
f 7/4/4 6/2/2 4/6/6 2/7/7
f 8/8/8 12/9/9 13/10/10
f 12/9/9 10/11/11 14/12/12 13/10/10
f 13/10/10 11/13/13 8/8/8
f 14/12/12 9/14/14 11/13/13 13/10/10
