# Blender v2.78 (sub 0) OBJ File: 'mesh.blend'
# www.blender.org
o Plane_Plane.013
v -0.163641 0.000000 0.000000
v -0.160362 -0.610260 -1.088388
v 0.022164 -0.028755 -0.720949
v -0.003727 -0.191645 -0.973612
v 0.376835 -0.652092 -1.031680
v 0.108236 -0.611711 -1.090419
v 0.506476 -0.346796 -0.806748
v 0.579580 -0.192437 -0.629791
v -0.535251 -0.184865 -0.673223
v 0.028256 0.000000 0.000000
v -0.513929 -0.331379 -0.874213
v -0.067692 0.000000 0.000000
v -0.067692 0.000000 0.000000
v -0.513929 -0.331379 -0.874213
v 0.028256 0.000000 0.000000
v -0.535251 -0.184865 -0.673223
v 0.579580 -0.192437 -0.629791
v 0.376835 -0.652092 -1.031680
v 0.506476 -0.346796 -0.806748
v 0.108236 -0.611711 -1.090419
v -0.160362 -0.610260 -1.088388
v -0.003727 -0.191645 -0.973612
v 0.022164 -0.028755 -0.720949
v -0.163641 0.000000 0.000000
vt 0.4981 0.6410
vt 0.5111 0.4212
vt 0.7898 0.4212
vt 0.7532 0.6410
vt 0.5541 0.9188
vt 0.6884 0.9188
vt 0.4662 0.0000
vt 0.5141 0.0000
vt 0.2324 0.4212
vt 0.4182 0.0000
vt 0.2430 0.6410
vt 0.4198 0.9188
vt 0.4198 0.9188
vt 0.5541 0.9188
vt 0.4981 0.6410
vt 0.2430 0.6410
vt 0.5111 0.4212
vt 0.2324 0.4212
vt 0.4662 0.0000
vt 0.4182 0.0000
vt 0.7898 0.4212
vt 0.5141 0.0000
vt 0.6884 0.9188
vt 0.7532 0.6410
vn 0.0242 0.6120 -0.7904
vn 0.0413 0.9334 -0.3563
vn 0.3285 0.8611 -0.3880
vn 0.3602 0.5911 -0.7216
vn 0.1362 0.3771 -0.9161
vn 0.3455 0.3930 -0.8521
vn -0.0146 0.9971 -0.0749
vn 0.2481 0.9679 -0.0407
vn -0.2781 0.8879 -0.3665
vn -0.2381 0.9661 -0.0999
vn -0.2641 0.6529 -0.7099
vn -0.1782 0.3216 -0.9299
vn 0.1782 -0.3216 0.9299
vn -0.1362 -0.3771 0.9161
vn -0.0242 -0.6120 0.7904
vn 0.2641 -0.6529 0.7099
vn -0.0413 -0.9334 0.3563
vn 0.2781 -0.8879 0.3665
vn 0.0146 -0.9971 0.0749
vn 0.2381 -0.9661 0.0999
vn -0.3285 -0.8611 0.3880
vn -0.2481 -0.9679 0.0407
vn -0.3455 -0.3930 0.8521
vn -0.3602 -0.5911 0.7216
s 1
f 22/1/1 23/2/2 8/3/3 7/4/4
f 6/5/5 22/1/1 7/4/4 18/6/6
f 23/2/2 12/7/7 10/8/8 8/3/3
f 16/9/9 1/10/10 12/7/7 23/2/2
f 14/11/11 16/9/9 23/2/2 22/1/1
f 2/12/12 14/11/11 22/1/1 6/5/5
f 21/13/13 20/14/14 4/15/15 11/16/16
f 11/16/16 4/15/15 3/17/17 9/18/18
f 9/18/18 3/17/17 13/19/19 24/20/20
f 3/17/17 17/21/21 15/22/22 13/19/19
f 20/14/14 5/23/23 19/24/24 4/15/15
f 4/15/15 19/24/24 17/21/21 3/17/17
