# Blender v2.78 (sub 0) OBJ File: 'mesh.blend'
# www.blender.org
o Plane_Plane.013
v -0.163641 0.000000 0.000000
v -0.160362 0.000000 -1.837631
v -0.513929 -0.045147 -1.282051
v -0.535251 -0.045147 -0.842491
v 0.028256 0.000000 0.000000
v 0.376835 0.000000 -1.837631
v 0.579580 -0.045147 -0.842491
v 0.506476 -0.045147 -1.282051
v 0.108236 0.000000 -1.837631
v -0.003727 0.171220 -1.282051
v 0.022164 0.171220 -0.842491
v -0.067692 0.000000 0.000000
v -0.163641 0.000000 0.000000
v -0.160362 0.000000 -1.837631
v -0.513929 -0.045147 -1.282051
v -0.535251 -0.045147 -0.842491
v 0.028256 0.000000 0.000000
v 0.376835 0.000000 -1.837631
v 0.579580 -0.045147 -0.842491
v 0.506476 -0.045147 -1.282051
v 0.108236 0.000000 -1.837631
v -0.003727 0.171220 -1.282051
v 0.022164 0.171220 -0.842491
v -0.067692 0.000000 0.000000
vt 0.5541 0.9188
vt 0.4981 0.6410
vt 0.7532 0.6410
vt 0.6884 0.9188
vt 0.5111 0.4212
vt 0.7898 0.4212
vt 0.4662 0.0000
vt 0.5141 0.0000
vt 0.2324 0.4212
vt 0.4182 0.0000
vt 0.2430 0.6410
vt 0.4198 0.9188
vt 0.5541 0.9188
vt 0.6884 0.9188
vt 0.7532 0.6410
vt 0.4981 0.6410
vt 0.7898 0.4212
vt 0.5111 0.4212
vt 0.5141 0.0000
vt 0.4662 0.0000
vt 0.2324 0.4212
vt 0.4182 0.0000
vt 0.2430 0.6410
vt 0.4198 0.9188
vn 0.0355 0.9858 -0.1642
vn -0.0223 0.9949 -0.0979
vn 0.3284 0.9417 -0.0732
vn 0.2660 0.9573 -0.1128
vn 0.0168 0.9973 0.0706
vn 0.3500 0.9352 0.0540
vn -0.0233 0.9867 0.1608
vn 0.3088 0.9325 0.1873
vn -0.3489 0.9356 0.0544
vn -0.3120 0.9421 0.1227
vn -0.3337 0.9390 -0.0833
vn -0.2613 0.9407 -0.2162
vn -0.0355 -0.9858 0.1642
vn -0.2660 -0.9573 0.1128
vn -0.3284 -0.9417 0.0732
vn 0.0223 -0.9949 0.0979
vn -0.3500 -0.9352 -0.0540
vn -0.0168 -0.9973 -0.0706
vn -0.3088 -0.9325 -0.1873
vn 0.0233 -0.9867 -0.1608
vn 0.3489 -0.9356 -0.0544
vn 0.3120 -0.9421 -0.1227
vn 0.3337 -0.9390 0.0833
vn 0.2613 -0.9407 0.2162
s 1
f 9/1/1 10/2/2 8/3/3 6/4/4
f 10/2/2 11/5/5 7/6/6 8/3/3
f 11/5/5 12/7/7 5/8/8 7/6/6
f 4/9/9 1/10/10 12/7/7 11/5/5
f 3/11/11 4/9/9 11/5/5 10/2/2
f 2/12/12 3/11/11 10/2/2 9/1/1
f 21/13/13 18/14/14 20/15/15 22/16/16
f 22/16/16 20/15/15 19/17/17 23/18/18
f 23/18/18 19/17/17 17/19/19 24/20/20
f 16/21/21 23/18/18 24/20/20 13/22/22
f 15/23/23 22/16/16 23/18/18 16/21/21
f 14/24/24 21/13/13 22/16/16 15/23/23
